<svg xmlns="http://www.w3.org/2000/svg" width="512" height="256"><rect x="0" y="0" width="64" height="64" fill="#fff1d4"/><rect x="64" y="0" width="64" height="64" fill="#f45f50"/><rect x="128" y="0" width="64" height="64" fill="#378bd1"/><rect x="192" y="0" width="64" height="64" fill="#1d465f"/><rect x="0" y="64" width="64" height="64" fill="#6ab336"/><rect x="64" y="64" width="64" height="64" fill="#99cc43"/><rect x="128" y="64" width="64" height="64" fill="#37843c"/><rect x="192" y="64" width="64" height="64" fill="#c17c43"/><rect x="0" y="128" width="64" height="64" fill="#e8b775"/><rect x="64" y="128" width="64" height="64" fill="#fbc94d"/><rect x="128" y="128" width="64" height="64" fill="#6397b3"/><rect x="192" y="128" width="64" height="64" fill="#d9e6ec"/><rect x="0" y="192" width="64" height="64" fill="#393e4b"/><rect x="64" y="192" width="64" height="64" fill="#ffffff"/><rect x="128" y="192" width="64" height="64" fill="#85b349"/><rect x="192" y="192" width="64" height="64" fill="#acd95b"/><rect x="256" width="256" height="256" fill="#93cbe5"/><path d="M256 15H512M256 240H512" stroke="#264e67" stroke-width="15"/><path d="M259 38L298 38L278 204Z" fill="#f46b54"/><path d="M301 38L340 38L320 204Z" fill="#f6c946"/><path d="M343 38L382 38L362 204Z" fill="#3386cf"/><path d="M385 38L424 38L404 204Z" fill="#fff0dc"/><path d="M427 38L466 38L446 204Z" fill="#f46b54"/><path d="M469 38L508 38L488 204Z" fill="#f6c946"/></svg>