<svg xmlns="http://www.w3.org/2000/svg" width="256" height="256"><rect width="256" height="256" fill="#47bfd4"/><path d="M-32 -32 Q-16 -40 0 -32 T32 -32 T64 -32 T96 -32 T128 -32 T160 -32 T192 -32 T224 -32 T256 -32 T288 -32" stroke="#bcf7ed" stroke-width="3" opacity=".45" fill="none"/><path d="M-32 0 Q-16 -8 0 0 T32 0 T64 0 T96 0 T128 0 T160 0 T192 0 T224 0 T256 0 T288 0" stroke="#bcf7ed" stroke-width="3" opacity=".45" fill="none"/><path d="M-32 32 Q-16 24 0 32 T32 32 T64 32 T96 32 T128 32 T160 32 T192 32 T224 32 T256 32 T288 32" stroke="#bcf7ed" stroke-width="3" opacity=".45" fill="none"/><path d="M-32 64 Q-16 56 0 64 T32 64 T64 64 T96 64 T128 64 T160 64 T192 64 T224 64 T256 64 T288 64" stroke="#bcf7ed" stroke-width="3" opacity=".45" fill="none"/><path d="M-32 96 Q-16 88 0 96 T32 96 T64 96 T96 96 T128 96 T160 96 T192 96 T224 96 T256 96 T288 96" stroke="#bcf7ed" stroke-width="3" opacity=".45" fill="none"/><path d="M-32 128 Q-16 120 0 128 T32 128 T64 128 T96 128 T128 128 T160 128 T192 128 T224 128 T256 128 T288 128" stroke="#bcf7ed" stroke-width="3" opacity=".45" fill="none"/><path d="M-32 160 Q-16 152 0 160 T32 160 T64 160 T96 160 T128 160 T160 160 T192 160 T224 160 T256 160 T288 160" stroke="#bcf7ed" stroke-width="3" opacity=".45" fill="none"/><path d="M-32 192 Q-16 184 0 192 T32 192 T64 192 T96 192 T128 192 T160 192 T192 192 T224 192 T256 192 T288 192" stroke="#bcf7ed" stroke-width="3" opacity=".45" fill="none"/><path d="M-32 224 Q-16 216 0 224 T32 224 T64 224 T96 224 T128 224 T160 224 T192 224 T224 224 T256 224 T288 224" stroke="#bcf7ed" stroke-width="3" opacity=".45" fill="none"/><path d="M-32 256 Q-16 248 0 256 T32 256 T64 256 T96 256 T128 256 T160 256 T192 256 T224 256 T256 256 T288 256" stroke="#bcf7ed" stroke-width="3" opacity=".45" fill="none"/></svg>